<svg fill="currentColor" version="1.0" xmlns="http://www.w3.org/2000/svg"
 width="512.000000pt" height="512.000000pt" viewBox="0 0 512.000000 512.000000"
 preserveAspectRatio="xMidYMid meet">

<g transform="translate(0.000000,512.000000) scale(0.100000,-0.100000)"
 stroke="none">
<path d="M2368 5101 c-358 -78 -615 -318 -719 -672 -19 -64 -22 -105 -26 -304
-4 -167 -8 -234 -18 -245 -62 -72 -79 -202 -38 -292 42 -91 142 -172 241 -193
24 -5 33 -13 37 -33 28 -147 111 -299 215 -395 l60 -56 0 -100 0 -100 -52 -19
c-331 -126 -845 -330 -890 -354 -145 -77 -257 -210 -315 -373 l-28 -80 -3
-855 c-2 -593 0 -866 8 -892 14 -50 56 -97 105 -119 38 -17 82 -19 750 -18
567 0 713 2 727 13 39 30 40 92 0 122 -13 11 -107 13 -439 14 l-422 0 -3 349
c-3 392 1 368 -82 435 l-38 31 -229 3 -229 3 0 419 c0 266 4 438 11 472 25
118 113 248 218 321 25 17 192 88 371 158 l325 127 18 -31 c82 -134 243 -238
442 -283 106 -24 274 -24 380 0 199 45 360 149 442 283 l18 31 315 -122 c173
-68 330 -130 347 -139 56 -30 162 -137 198 -201 42 -76 65 -168 65 -267 0 -62
4 -81 21 -103 27 -35 77 -36 109 -1 22 23 23 29 17 142 -7 171 -50 285 -148
400 -55 64 -131 126 -200 163 -44 23 -574 234 -886 352 l-53 19 0 109 c0 107
0 109 28 130 88 68 198 252 222 372 l13 66 46 12 c91 23 182 94 224 175 24 48
34 154 18 211 -6 23 -22 57 -35 76 -22 33 -23 46 -29 244 -6 214 -18 296 -57
400 -108 289 -349 508 -645 585 -117 30 -294 35 -407 10z m377 -156 c33 -9
103 -37 155 -63 80 -39 110 -61 186 -137 177 -175 244 -352 244 -642 0 -85 -2
-93 -19 -93 -34 0 -51 12 -51 35 0 32 -41 84 -166 212 -129 132 -152 142 -232
100 -352 -185 -480 -224 -770 -234 -145 -5 -166 -8 -195 -27 -17 -12 -37 -32
-43 -45 -16 -30 -24 -37 -56 -45 l-28 -6 0 135 c0 152 16 248 58 353 102 249
320 419 612 476 47 9 245 -3 305 -19z m274 -825 l92 -100 -3 -327 c-4 -324 -4
-329 -29 -395 -68 -177 -203 -301 -384 -353 -91 -27 -258 -17 -350 20 -135 54
-241 149 -300 270 -50 102 -55 138 -55 448 l0 287 93 0 c239 1 495 68 722 189
61 33 113 60 116 60 3 1 48 -44 98 -99z m-1179 -415 c0 -144 -1 -155 -18 -155
-30 0 -97 54 -115 93 -25 51 -21 88 13 135 25 35 87 80 113 82 4 0 7 -70 7
-155z m1481 132 c116 -78 103 -215 -28 -281 l-33 -17 0 161 c0 177 0 178 61
137z m-928 -1043 c131 -27 276 -17 425 31 21 7 22 5 22 -63 0 -68 -1 -71 -37
-102 -20 -18 -62 -45 -93 -59 -48 -23 -68 -26 -155 -26 -87 0 -107 3 -155 26
-31 14 -73 41 -93 59 -36 31 -37 34 -37 101 l0 69 27 -11 c15 -6 58 -17 96
-25z m-160 -265 c93 -74 195 -109 322 -109 128 0 246 41 333 116 l43 36 65
-23 c70 -25 72 -29 31 -78 -54 -67 -174 -136 -287 -167 -89 -24 -272 -24 -360
-1 -82 22 -193 75 -245 116 -39 32 -92 98 -84 105 6 5 112 45 122 45 4 1 31
-18 60 -40z m-835 -1721 c9 -9 12 -97 12 -335 l0 -323 -203 0 c-145 0 -206 3
-215 12 -9 9 -12 97 -12 335 l0 323 203 0 c145 0 206 -3 215 -12z"/>
<path d="M2880 1746 c-269 -72 -259 -413 18 -642 37 -30 100 -71 140 -91 67
-34 75 -35 111 -25 21 7 74 35 117 63 180 118 284 279 284 441 0 133 -67 220
-194 254 -64 18 -115 10 -187 -28 l-56 -29 -37 25 c-20 13 -59 29 -87 35 -58
13 -52 13 -109 -3z m93 -150 c18 -7 45 -28 60 -45 57 -65 107 -64 177 3 53 51
81 60 125 42 73 -31 87 -119 35 -224 -35 -69 -139 -173 -211 -211 l-45 -24
-58 37 c-117 75 -197 177 -216 276 -16 84 10 136 75 153 11 2 21 5 23 6 1 0
17 -5 35 -13z"/>
<path d="M4179 1399 c-43 -16 -49 -45 -49 -244 l0 -185 -212 0 c-231 0 -265
-7 -315 -61 -51 -55 -53 -75 -53 -429 l0 -330 -419 0 c-408 0 -419 -1 -445
-21 -19 -15 -26 -30 -26 -54 0 -24 7 -39 26 -54 26 -21 34 -21 731 -21 612 0
708 2 741 15 49 21 81 52 103 100 17 37 19 78 19 637 0 328 -3 604 -6 613 -5
13 -56 47 -66 44 -2 0 -15 -5 -29 -10z m-49 -902 c0 -238 -3 -326 -12 -335 -9
-9 -70 -12 -215 -12 l-203 0 0 323 c0 238 3 326 12 335 9 9 70 12 215 12 l203
0 0 -323z"/>
</g>
</svg>