<svg version="1.0" xmlns="http://www.w3.org/2000/svg"
 width="512.000000pt" height="512.000000pt" viewBox="0 0 512.000000 512.000000"
 preserveAspectRatio="xMidYMid meet" fill="currentColor">

<g transform="translate(0.000000,512.000000) scale(0.100000,-0.100000)"
fill="currentColor" stroke="none">
<path d="M2472 5109 c-106 -20 -143 -48 -380 -282 -332 -326 -327 -324 -797
-330 -292 -4 -325 -6 -376 -24 -73 -27 -124 -61 -175 -114 -51 -56 -71 -87
-96 -157 -19 -52 -21 -85 -25 -377 -6 -470 -4 -465 -330 -797 -243 -247 -264
-276 -285 -403 -8 -46 -8 -84 0 -130 21 -127 42 -156 285 -403 326 -332 324
-327 330 -797 4 -292 6 -325 24 -376 49 -133 150 -232 279 -275 40 -13 110
-17 369 -21 469 -6 465 -5 797 -330 247 -243 276 -264 403 -285 80 -14 171 0
251 36 45 21 100 69 278 244 225 223 268 256 385 301 64 25 74 25 401 32 268
5 345 10 384 23 129 43 230 142 279 275 18 51 21 87 26 391 7 327 7 337 32
401 45 117 78 160 301 385 175 178 223 233 244 278 36 80 50 171 36 251 -21
127 -42 156 -285 403 -325 332 -324 328 -330 797 -4 293 -6 325 -25 377 -48
131 -139 222 -271 271 -51 18 -87 21 -391 26 -327 7 -337 7 -401 32 -117 45
-160 78 -385 301 -236 232 -269 256 -384 278 -61 12 -107 11 -168 -1z m561
-2701 l-808 -808 -472 472 -473 473 150 150 150 150 320 -320 320 -320 657
657 658 658 152 -152 153 -153 -807 -807z"/>
</g>
</svg>
