<svg fill="currentColor" version="1.0" xmlns="http://www.w3.org/2000/svg"
 width="512.000000pt" height="512.000000pt" viewBox="0 0 512.000000 512.000000"
 preserveAspectRatio="xMidYMid meet">

<g transform="translate(0.000000,512.000000) scale(0.100000,-0.100000)"
stroke="none">
<path d="M2310 5099 c-80 -36 -125 -92 -138 -172 l-8 -42 -229 -5 c-221 -5
-231 -6 -263 -28 -34 -24 -55 -57 -66 -104 l-6 -28 -328 0 c-194 0 -352 -4
-387 -11 -160 -30 -284 -154 -315 -319 -15 -77 -14 -3986 1 -4065 29 -158 150
-281 307 -314 75 -16 3289 -16 3364 0 157 33 278 156 307 314 15 79 16 3988 1
4065 -31 165 -155 289 -315 319 -35 7 -193 11 -387 11 l-328 0 -6 28 c-11 47
-32 80 -66 104 -32 22 -42 23 -263 28 l-229 5 -8 42 c-13 80 -58 136 -138 172
-41 19 -65 21 -250 21 -185 0 -209 -2 -250 -21z m449 -142 c14 -6 31 -27 38
-44 l13 -33 -250 0 -250 0 13 33 c21 52 43 57 237 57 119 0 183 -4 199 -13z
m606 -382 c-1 -139 -2 -154 -25 -199 -28 -54 -66 -91 -125 -117 -37 -17 -81
-19 -655 -19 -574 0 -618 2 -655 19 -59 27 -97 63 -125 117 -21 43 -24 66 -28
186 -3 75 -2 144 1 153 6 13 90 15 809 13 l803 -3 0 -150z m-1765 -37 c0 -18
3 -56 6 -85 l7 -52 -314 -3 c-306 -3 -315 -4 -345 -25 -17 -12 -40 -35 -50
-50 -18 -27 -19 -85 -19 -1965 l0 -1937 21 -27 c11 -15 33 -37 48 -48 l27 -21
1579 0 1579 0 27 21 c15 11 37 33 48 48 l21 27 0 1937 0 1937 -22 31 c-50 70
-45 69 -392 72 l-314 3 7 52 c3 29 6 67 6 85 l0 32 333 0 c389 0 409 -3 481
-76 82 -82 76 98 76 -2134 0 -2229 6 -2054 -74 -2134 -82 -82 64 -76 -1776
-76 -1840 0 -1694 -6 -1776 76 -80 80 -74 -95 -74 2134 0 2233 -6 2052 76
2134 72 72 87 74 477 75 l337 1 0 -32z m111 -324 c47 -49 114 -89 178 -108 47
-14 137 -16 671 -16 534 0 624 2 671 16 64 19 131 59 178 108 l35 36 323 0
323 0 0 -1890 0 -1890 -1530 0 -1530 0 0 1890 0 1890 323 0 323 0 35 -36z"/>
<path d="M1414 3746 c-20 -9 -35 -25 -43 -46 -15 -43 -15 -637 -1 -676 21 -54
18 -53 391 -54 l346 0 21 23 c22 23 22 28 22 368 -1 371 0 368 -54 389 -44 16
-643 13 -682 -4z m586 -381 l0 -245 -245 0 -245 0 0 245 0 245 245 0 245 0 0
-245z"/>
<path d="M2380 3673 c-52 -20 -68 -85 -30 -123 18 -18 33 -20 170 -20 137 0
152 2 170 20 27 27 26 81 -1 106 -18 16 -39 19 -158 21 -75 1 -143 0 -151 -4z"/>
<path d="M2380 3353 c-52 -19 -68 -85 -30 -123 20 -20 33 -20 653 -20 623 0
634 0 652 20 25 28 23 76 -4 103 l-22 22 -617 2 c-339 1 -624 -1 -632 -4z"/>
<path d="M1485 2711 c-45 -11 -74 -32 -98 -71 -21 -34 -22 -44 -22 -320 0
-267 1 -287 20 -318 11 -18 36 -43 55 -55 34 -21 44 -22 322 -22 275 0 288 1
315 21 56 42 73 79 73 165 0 92 -17 119 -73 119 -48 0 -68 -27 -74 -99 l-6
-61 -241 2 -241 3 -3 243 -2 242 245 0 245 0 0 -28 c0 -21 -18 -46 -80 -107
l-79 -79 -65 62 c-53 51 -70 62 -99 62 -42 0 -70 -29 -70 -71 0 -25 17 -47 99
-130 142 -143 117 -151 386 119 194 193 218 221 218 250 0 42 -30 72 -73 72
-25 0 -42 -9 -67 -35 l-34 -35 -25 24 c-54 50 -60 51 -336 53 -143 1 -273 -2
-290 -6z"/>
<path d="M2385 2553 c-56 -14 -76 -91 -34 -129 20 -18 42 -19 450 -19 428 0
428 0 450 22 29 29 29 77 0 106 -21 22 -24 22 -434 24 -226 0 -421 -1 -432 -4z"/>
<path d="M2352 2214 c-30 -21 -31 -83 -1 -110 20 -18 46 -19 650 -19 l628 0
22 22 c27 27 29 75 4 103 -18 20 -29 20 -649 20 -555 0 -634 -2 -654 -16z"/>
<path d="M1389 1644 l-24 -26 -3 -323 c-3 -356 1 -385 53 -405 37 -14 643 -13
684 1 17 6 36 19 41 29 6 11 10 156 10 360 l0 341 -25 24 -24 25 -344 0 -344
0 -24 -26z m611 -369 l0 -245 -245 0 -245 0 0 245 0 245 245 0 245 0 0 -245z"/>
<path d="M2350 1490 c-27 -27 -26 -81 1 -106 19 -17 38 -19 209 -19 171 0 190
2 209 19 27 25 28 79 1 106 -19 19 -33 20 -210 20 -177 0 -191 -1 -210 -20z"/>
<path d="M2350 1170 c-30 -30 -27 -83 6 -109 26 -21 35 -21 640 -21 437 0 620
3 638 11 49 23 53 104 7 128 -13 8 -223 11 -645 11 -613 0 -626 0 -646 -20z"/>
</g>
</svg>
